<svg width="16" height="16" viewBox="0 0 16 16" fill="none" xmlns="http://www.w3.org/2000/svg">
<path d="M9.28233 0.000244141C9.52786 0.0936172 9.79328 0.153867 10.0151 0.286781C10.6124 0.644607 10.915 1.19184 10.9387 1.88921C10.9438 2.0397 10.9394 2.19053 10.9394 2.36482C11.0096 2.36482 11.0701 2.36482 11.1306 2.36482C11.9171 2.3649 12.7035 2.36149 13.4899 2.36653C13.9256 2.36932 14.2124 2.71094 14.1291 3.11601C14.0863 3.32401 13.9657 3.48071 13.7687 3.55509C13.6579 3.59692 13.6374 3.65546 13.6375 3.76096C13.6402 5.92208 13.6398 8.08316 13.6385 10.2443C13.6384 10.3478 13.6384 10.4551 13.6131 10.5542C13.5401 10.8395 13.2655 11.022 12.961 11.0015C12.6809 10.9826 12.4431 10.7625 12.4025 10.4783C12.3908 10.3963 12.3899 10.3123 12.3899 10.2292C12.3893 8.09933 12.3894 5.9695 12.3894 3.83962C12.3894 3.77275 12.3894 3.70588 12.3894 3.62696C9.46324 3.62696 6.55009 3.62696 3.62044 3.62696C3.61778 3.68254 3.61286 3.73763 3.61286 3.79275C3.61249 6.99535 3.61199 10.198 3.6129 13.4006C3.61315 14.2369 4.13119 14.7498 4.97071 14.7499C7.01229 14.7501 9.05387 14.7508 11.0955 14.7494C11.7316 14.749 12.2321 14.3554 12.3617 13.7557C12.3835 13.6546 12.3829 13.5489 12.396 13.4457C12.4395 13.103 12.7208 12.8598 13.0477 12.8804C13.3947 12.9023 13.6404 13.1776 13.6374 13.5412C13.6282 14.6331 12.8748 15.6121 11.8157 15.9053C11.6812 15.9425 11.5437 15.9687 11.4076 16C9.1365 16 6.86546 16 4.59438 16C4.56509 15.9907 4.53638 15.9774 4.50634 15.9729C3.84219 15.8728 3.30249 15.557 2.88854 15.0305C2.51338 14.5533 2.35972 14.0055 2.36047 13.4011C2.3646 10.2034 2.36185 7.00573 2.36431 3.808C2.36439 3.67938 2.3528 3.59205 2.20606 3.5393C2.02573 3.47451 1.91815 3.32038 1.87511 3.13168C1.78148 2.72152 2.06989 2.36949 2.51168 2.36657C3.29816 2.3614 4.08464 2.36495 4.87117 2.36486C4.93171 2.36486 4.99225 2.36486 5.04662 2.36486C5.05529 2.33124 5.06008 2.32115 5.06017 2.31107C5.06121 2.18087 5.05991 2.05066 5.06237 1.9205C5.07591 1.20264 5.38541 0.644523 6.00044 0.279197C6.21848 0.1497 6.47868 0.0912009 6.71963 0.000286101C7.57382 0.000244436 8.42805 0.000244141 9.28233 0.000244141ZM6.31489 2.35403C7.44782 2.35403 8.56343 2.35403 9.68574 2.35403C9.68574 2.17224 9.69874 1.99991 9.6829 1.83025C9.65361 1.51621 9.38204 1.25768 9.06417 1.25393C8.35672 1.24555 7.64907 1.2458 6.94163 1.25368C6.61697 1.25726 6.3421 1.52246 6.31718 1.8415C6.30427 2.00658 6.31489 2.17349 6.31489 2.35403Z" fill="white"/>
<path d="M7.37604 9.17075C7.37604 8.30123 7.3747 7.43171 7.37679 6.56218C7.37749 6.2784 7.53766 6.05465 7.79365 5.96324C8.03527 5.87699 8.32002 5.93869 8.46901 6.14873C8.55134 6.26481 8.61855 6.42189 8.61934 6.56093C8.6293 8.3051 8.62697 10.0494 8.62501 11.7937C8.62459 12.1622 8.3531 12.4367 8.00144 12.4371C7.65036 12.4375 7.37787 12.162 7.37679 11.795C7.37429 10.9202 7.37599 10.0455 7.37604 9.17075Z" fill="white"/>
<path d="M11.0142 9.18094C11.0142 10.0399 11.0156 10.8989 11.0135 11.7579C11.0127 12.1038 10.8465 12.3331 10.5486 12.4145C10.1986 12.5101 9.83723 12.2803 9.77869 11.9227C9.76865 11.8614 9.76481 11.7984 9.76477 11.7362C9.76406 10.0338 9.76481 8.33146 9.7634 6.62908C9.76323 6.42246 9.80736 6.23492 9.96706 6.09284C10.1648 5.91692 10.3949 5.87792 10.6355 5.97917C10.8781 6.08121 11.0084 6.27708 11.0113 6.54145C11.0169 7.04636 11.0139 7.55139 11.0142 8.05638C11.0145 8.43125 11.0143 8.80607 11.0142 9.18094Z" fill="white"/>
<path d="M4.98778 9.1711C4.98795 8.30691 4.98386 7.44268 4.98953 6.57849C4.99265 6.10283 5.42723 5.79971 5.84664 5.97321C6.05921 6.06117 6.18834 6.2227 6.2245 6.45224C6.23417 6.51362 6.23717 6.57657 6.23717 6.63882C6.23784 8.33599 6.23821 10.0332 6.2373 11.7303C6.23709 12.103 6.06601 12.3424 5.75143 12.4201C5.40256 12.5064 5.03928 12.2609 4.9982 11.9036C4.9834 11.775 4.98815 11.6438 4.98803 11.5138C4.98724 10.7329 4.98761 9.952 4.98778 9.1711Z" fill="white"/>
</svg>
