<svg width="16" height="16" viewBox="0 0 16 16" fill="none" xmlns="http://www.w3.org/2000/svg">
<g clip-path="url(#clip0_1_758)">
<path d="M0 7.78134C0.212656 6.95121 0.740438 6.29956 1.24125 5.63974C2.12616 4.4739 3.19309 3.50859 4.50056 2.82921C5.7475 2.18127 7.07422 1.8979 8.4775 1.98549C10.5819 2.11681 12.3039 3.05537 13.7758 4.51206C14.561 5.28912 15.2174 6.16681 15.7538 7.13134C15.8652 7.33168 15.9194 7.56387 16 7.78137C16 7.92721 16 8.07302 16 8.21887C15.8249 8.9769 15.3426 9.56699 14.9142 10.1841C14.7143 10.4722 14.3293 10.5171 14.0539 10.3176C13.7778 10.1174 13.7147 9.75168 13.9047 9.45687C14.1583 9.06346 14.4121 8.67021 14.664 8.27577C14.7712 8.1079 14.7799 7.93359 14.6796 7.75887C13.9052 6.40984 12.9389 5.23093 11.6377 4.35371C10.4538 3.55562 9.14866 3.16165 7.71775 3.22556C6.30425 3.28868 5.05559 3.80065 3.94309 4.65993C2.85125 5.50327 2.00934 6.56002 1.32541 7.74977C1.23597 7.90537 1.21938 8.0659 1.30903 8.22537C2.15775 9.73462 3.23072 11.0489 4.76469 11.897C7.13203 13.2058 9.46419 13.0719 11.7278 11.6012C11.865 11.5121 12.0125 11.416 12.168 11.3829C12.4535 11.3221 12.7262 11.4951 12.8329 11.7587C12.9426 12.0293 12.8587 12.3246 12.6085 12.5061C11.8959 13.0233 11.1268 13.437 10.2803 13.6832C7.68197 14.439 5.30903 13.9609 3.16566 12.33C1.92459 11.3857 0.971719 10.1894 0.22 8.83065C0.116406 8.6434 0.071875 8.42356 0 8.21884C0 8.07299 0 7.92718 0 7.78134Z" fill="white"/>
<path d="M8.00586 4.31275C10.0358 4.3144 11.6895 5.97312 11.687 8.00487C11.6844 10.0348 10.0249 11.6893 7.99417 11.6865C5.96414 11.6836 4.31105 10.025 4.31323 7.99318C4.31542 5.96299 5.9728 4.31109 8.00586 4.31275ZM5.56308 7.9929C5.56092 9.33496 6.65133 10.4329 7.98992 10.4365C9.33211 10.4402 10.4323 9.35056 10.4371 8.013C10.4419 6.66256 9.3498 5.56353 8.0022 5.56271C6.66011 5.56193 5.56523 6.65278 5.56308 7.9929Z" fill="white"/>
<path d="M8.00153 9.24899C7.47478 9.24952 6.99368 8.90871 6.81984 8.41186C6.64687 7.91749 6.80428 7.36055 7.20971 7.03143C7.3274 6.9359 7.45059 6.86708 7.60921 6.93058C7.77281 6.99608 7.81778 7.12949 7.83409 7.28999C7.88528 7.79355 8.207 8.11577 8.70837 8.16536C8.8689 8.18124 9.00247 8.22536 9.06834 8.38902C9.13215 8.54752 9.06406 8.67052 8.96846 8.78861C8.736 9.07568 8.37397 9.24861 8.00153 9.24899Z" fill="white"/>
</g>
<defs>
<clipPath id="clip0_1_758">
<rect width="16" height="16" fill="white"/>
</clipPath>
</defs>
</svg>
