<svg width="16" height="16" viewBox="0 0 16 16" fill="none" xmlns="http://www.w3.org/2000/svg">
<g clip-path="url(#clip0_1_764)">
<path d="M12.4833 3.14713e-05C13.6351 0.226594 14.382 1.03406 15.1086 1.85653C15.3459 2.12519 15.551 2.43603 15.7097 2.75772C16.1209 3.59122 15.9911 4.42919 15.3369 5.09194C14.3494 6.09231 13.3409 7.07191 12.3363 8.05525C12.0689 8.31694 11.703 8.292 11.4223 8.01156C10.4277 7.01794 9.43404 6.02347 8.43989 5.0295C8.40017 4.98978 8.35876 4.95175 8.34239 4.93606C6.5437 6.71916 4.75167 8.49563 2.9591 10.2727C3.87373 11.1799 4.78245 12.0812 5.70042 12.9918C5.86586 12.8257 6.04792 12.6433 6.22939 12.4604C7.27076 11.411 8.31282 10.3622 9.35226 9.31084C9.49817 9.16325 9.66111 9.06547 9.87295 9.07675C10.1294 9.09041 10.3191 9.21669 10.4174 9.45244C10.5175 9.69272 10.4819 9.92513 10.301 10.1171C10.0699 10.3625 9.82907 10.5988 9.59157 10.8381C8.46607 11.9722 7.3396 13.1053 6.21548 14.2407C6.08454 14.3729 5.9396 14.4642 5.75701 14.5156C4.13707 14.9711 2.51851 15.4316 0.900729 15.8948C0.646354 15.9677 0.415574 15.9507 0.221667 15.7613C0.0231362 15.5674 0.000166152 15.333 0.0734474 15.0717C0.529385 13.4463 0.978042 11.8188 1.43823 10.1946C1.47726 10.0569 1.56004 9.91534 1.66095 9.81381C4.67429 6.78203 7.69357 3.75612 10.7086 0.726C11.0772 0.3555 11.5038 0.104094 12.0163 0C12.1719 3.125e-05 12.3276 3.14713e-05 12.4833 3.14713e-05ZM13.5843 5.107C13.874 4.81222 14.1675 4.51941 14.4543 4.22022C14.7278 3.93497 14.7644 3.61209 14.5825 3.26344C14.5443 3.19006 14.5066 3.11538 14.4593 3.04784C14.0237 2.42619 13.4968 1.89509 12.8695 1.46678C12.768 1.39753 12.6515 1.34772 12.5373 1.30041C12.2802 1.19394 12.0266 1.2215 11.8225 1.4045C11.4799 1.71153 11.1569 2.04025 10.8311 2.35453C11.752 3.27519 12.6572 4.18009 13.5843 5.107ZM9.22448 4.00441C10.1269 4.90709 11.0266 5.80713 11.9329 6.71375C12.1629 6.47237 12.4045 6.21888 12.6246 5.98794C11.7316 5.09313 10.8292 4.18897 9.93982 3.29775C9.70535 3.52938 9.45907 3.77266 9.22448 4.00441ZM2.3597 11.5041C2.20917 12.044 2.05301 12.5966 1.90485 13.1512C1.89404 13.1917 1.92945 13.2591 1.96354 13.2945C2.19007 13.5298 2.42492 13.7572 2.65073 13.9932C2.71854 14.0641 2.77829 14.0712 2.86885 14.0441C3.26054 13.9267 3.65482 13.818 4.04807 13.706C4.18489 13.667 4.32151 13.6273 4.46035 13.5874C3.75439 12.8873 3.06051 12.1991 2.3597 11.5041Z" fill="white"/>
<path d="M11.5334 15.9099C10.2891 15.9098 9.04471 15.9112 7.80036 15.9091C7.38099 15.9084 7.10061 15.5938 7.15499 15.195C7.19358 14.9118 7.42911 14.6936 7.72521 14.6682C7.76643 14.6647 7.80811 14.6663 7.84958 14.6663C10.3124 14.6663 12.7751 14.6669 15.2379 14.665C15.4447 14.6649 15.6312 14.7096 15.772 14.8673C15.9461 15.0623 15.9917 15.289 15.8874 15.5314C15.7835 15.7726 15.5919 15.9046 15.3286 15.9074C14.7999 15.9131 14.271 15.9098 13.7421 15.9099C13.0059 15.9101 12.2696 15.9099 11.5334 15.9099Z" fill="white"/>
</g>
<defs>
<clipPath id="clip0_1_764">
<rect width="16" height="16" fill="white"/>
</clipPath>
</defs>
</svg>
