<svg width="16" height="16" viewBox="0 0 16 16" fill="none" xmlns="http://www.w3.org/2000/svg">
<g clip-path="url(#clip0_11_433)">
<path d="M8.03231 9.56768C7.91792 9.67645 7.84845 9.74031 7.78108 9.80697C5.86739 11.7235 3.95161 13.6386 2.04143 15.5593C1.70318 15.8996 1.31581 16.0498 0.851254 15.9228C0.114411 15.7214 -0.195764 14.8301 0.245639 14.2056C0.315815 14.1059 0.404235 14.0189 0.490551 13.9319C2.38529 12.0329 4.28003 10.134 6.17757 8.23785C6.25055 8.16487 6.3495 8.11785 6.43651 8.0582C6.44072 8.0154 6.44564 7.97189 6.44985 7.92908C6.36002 7.87364 6.25616 7.83294 6.18318 7.76066C4.27301 5.85259 2.36704 3.94031 0.45757 2.03154C0.225991 1.79996 0.0575685 1.54452 0.0477439 1.20698C0.0330071 0.73259 0.228798 0.367676 0.650553 0.152939C1.0695 -0.0610957 1.48143 -0.0147805 1.85897 0.270834C1.9495 0.338904 2.02739 0.423817 2.10809 0.504519C3.99722 2.39645 5.88634 4.28838 7.77406 6.18241C7.84143 6.24978 7.88845 6.3375 7.96002 6.43645C8.08213 6.32066 8.15722 6.25189 8.2295 6.18031C10.1432 4.26382 12.059 2.34803 13.9692 0.427326C14.3081 0.0862729 14.6976 -0.0582884 15.1614 0.0743432C15.9074 0.287677 16.2007 1.19434 15.7334 1.8182C15.6548 1.92276 15.56 2.0154 15.4674 2.10803C13.5916 3.98873 11.7151 5.86873 9.83722 7.74662C9.76353 7.82031 9.67441 7.87925 9.56915 7.96346C9.67371 8.07364 9.74178 8.14873 9.81336 8.22101C11.7144 10.1256 13.6148 12.0308 15.5186 13.934C15.7481 14.1635 15.932 14.4098 15.9523 14.748C15.9818 15.2329 15.793 15.6105 15.3635 15.835C14.9369 16.0582 14.5151 16.0119 14.1334 15.7136C14.0099 15.6168 13.9039 15.4975 13.7923 15.3859C11.9404 13.5312 10.0884 11.6764 8.23792 9.81961C8.16845 9.75154 8.11441 9.66943 8.03231 9.56768Z" fill="white" fill-opacity="0.52"/>
</g>
<defs>
<clipPath id="clip0_11_433">
<rect width="16" height="16" fill="white"/>
</clipPath>
</defs>
</svg>
