<svg width="170" height="41" viewBox="0 0 170 41" fill="none" xmlns="http://www.w3.org/2000/svg">
<path fill-rule="evenodd" clip-rule="evenodd" d="M1.58926 18.538C2.49202 18.5131 3.33365 18.4439 3.93051 18.2517C4.35784 18.114 4.64445 17.8466 4.64445 17.3211V7.74545C4.64445 4.70394 6.41791 2.69556 9.49293 2.69556H11.6712C12.5709 2.69556 13.305 3.4366 13.305 4.34494V4.94255C13.305 5.85116 12.5709 6.59192 11.6712 6.59192H9.49293C8.66543 6.59192 8.50406 6.73975 8.50406 7.74518V17.3209C8.50406 18.7165 8.12372 19.7439 7.46492 20.5C8.12345 21.2562 8.50378 22.2833 8.50378 23.679V33.2546C8.50378 34.2598 8.66488 34.4079 9.49266 34.4079H11.6712C12.5709 34.4079 13.305 35.1489 13.305 36.0573V36.6549C13.305 37.5632 12.5709 38.3043 11.6712 38.3043H9.49266C6.41764 38.3043 4.64418 36.2959 4.64418 33.2546V23.679C4.64418 23.1535 4.35784 22.8861 3.93024 22.7484C3.33365 22.5561 2.49175 22.487 1.58926 22.4621C0.705253 22.4377 0 21.7059 0 20.8132V20.1866C0 19.2941 0.705524 18.5624 1.58926 18.538Z" fill="#2697FF"/>
<path fill-rule="evenodd" clip-rule="evenodd" d="M37.4113 18.538C36.5088 18.5131 35.6669 18.4439 35.0701 18.2517C34.6427 18.114 34.3561 17.8466 34.3561 17.3211V7.74545C34.3561 4.70394 32.5827 2.69556 29.5076 2.69556H27.3294C26.4296 2.69556 25.6956 3.4366 25.6956 4.34494V4.94255C25.6956 5.85116 26.4296 6.59192 27.3294 6.59192H29.5076C30.3351 6.59192 30.4965 6.73975 30.4965 7.74518V17.3209C30.4965 18.7165 30.8769 19.7439 31.5357 20.5C30.8769 21.2562 30.4965 22.2833 30.4965 23.679V33.2546C30.4965 34.2598 30.3354 34.4079 29.5076 34.4079H27.3291C26.4294 34.4079 25.6953 35.1489 25.6953 36.0573V36.6549C25.6953 37.5632 26.4294 38.3043 27.3291 38.3043H29.5076C32.5827 38.3043 34.3561 36.2959 34.3561 33.2546V23.679C34.3561 23.1535 34.6427 22.8861 35.0701 22.7484C35.6669 22.5561 36.5088 22.487 37.411 22.4621C38.2951 22.4377 39.0003 21.7059 39.0003 20.8132V20.1866C39.0006 19.2941 38.2953 18.5624 37.4113 18.538Z" fill="#2697FF"/>
<path fill-rule="evenodd" clip-rule="evenodd" d="M13.3247 15.4421H25.6764C26.5762 15.4421 27.3103 16.1832 27.3103 17.0915V17.5613C27.3103 18.4699 26.5762 19.2107 25.6764 19.2107H13.3247C12.4247 19.2107 11.6909 18.4697 11.6909 17.5613V17.0915C11.6909 16.1832 12.425 15.4421 13.3247 15.4421Z" fill="white"/>
<path fill-rule="evenodd" clip-rule="evenodd" d="M13.3247 21.7927H25.6764C26.5762 21.7927 27.3103 22.5335 27.3103 23.4421V23.9119C27.3103 24.8202 26.5762 25.5613 25.6764 25.5613H13.3247C12.4247 25.5613 11.6909 24.8202 11.6909 23.9119V23.4421C11.6909 22.5335 12.425 21.7927 13.3247 21.7927Z" fill="white"/>
<path fill-rule="evenodd" clip-rule="evenodd" d="M19.5003 9.09155H25.6761C26.5759 9.09155 27.3099 9.8326 27.3099 10.7409V11.2107C27.3099 12.1191 26.5759 12.8601 25.6761 12.8601H19.5003C18.6005 12.8601 17.8665 12.1191 17.8665 11.2107V10.7409C17.8665 9.83232 18.6005 9.09155 19.5003 9.09155Z" fill="white"/>
<path fill-rule="evenodd" clip-rule="evenodd" d="M13.3247 28.1436H19.5006C20.4006 28.1436 21.1344 28.8846 21.1344 29.7929V30.2627C21.1344 31.1711 20.4004 31.9121 19.5006 31.9121H13.3247C12.425 31.9121 11.6909 31.1713 11.6909 30.2627V29.7929C11.6909 28.8846 12.425 28.1436 13.3247 28.1436Z" fill="white"/>
<path d="M54.2002 19V5H56.2802V16.92H62.3102V19H54.2002ZM68.0143 19.26C67.0943 19.26 66.2543 19.0233 65.4943 18.55C64.741 18.0767 64.1376 17.4433 63.6843 16.65C63.2376 15.85 63.0143 14.9667 63.0143 14C63.0143 13.2667 63.1443 12.5833 63.4043 11.95C63.6643 11.31 64.021 10.75 64.4743 10.27C64.9343 9.78333 65.4676 9.40333 66.0743 9.13C66.681 8.85667 67.3276 8.72 68.0143 8.72C68.781 8.72 69.4843 8.88 70.1243 9.2C70.7643 9.51333 71.311 9.95 71.7643 10.51C72.2176 11.0633 72.551 11.7033 72.7643 12.43C72.9776 13.15 73.041 13.9167 72.9543 14.73H65.2443C65.331 15.19 65.4976 15.6067 65.7443 15.98C65.9976 16.3467 66.3176 16.6367 66.7043 16.85C67.0976 17.0633 67.5343 17.1733 68.0143 17.18C68.521 17.18 68.981 17.0533 69.3943 16.8C69.8143 16.5467 70.1576 16.1967 70.4243 15.75L72.5343 16.24C72.1343 17.1267 71.531 17.8533 70.7243 18.42C69.9176 18.98 69.0143 19.26 68.0143 19.26ZM65.1743 13.14H70.8543C70.7876 12.66 70.6176 12.2267 70.3443 11.84C70.0776 11.4467 69.741 11.1367 69.3343 10.91C68.9343 10.6767 68.4943 10.56 68.0143 10.56C67.541 10.56 67.101 10.6733 66.6943 10.9C66.2943 11.1267 65.961 11.4367 65.6943 11.83C65.4343 12.2167 65.261 12.6533 65.1743 13.14ZM82.3709 9H84.4509V19H82.3609L82.2809 17.55C81.9875 18.0633 81.5909 18.4767 81.0909 18.79C80.5909 19.1033 80.0009 19.26 79.3209 19.26C78.5875 19.26 77.8975 19.1233 77.2509 18.85C76.6042 18.57 76.0342 18.1833 75.5409 17.69C75.0542 17.1967 74.6742 16.63 74.4009 15.99C74.1275 15.3433 73.9909 14.65 73.9909 13.91C73.9909 13.1967 74.1242 12.5267 74.3909 11.9C74.6575 11.2667 75.0275 10.7133 75.5009 10.24C75.9742 9.76667 76.5209 9.39667 77.1409 9.13C77.7675 8.85667 78.4375 8.72 79.1509 8.72C79.8775 8.72 80.5175 8.88667 81.0709 9.22C81.6309 9.54667 82.0942 9.96667 82.4609 10.48L82.3709 9ZM79.2709 17.25C79.8575 17.25 80.3709 17.1067 80.8109 16.82C81.2509 16.5267 81.5909 16.1333 81.8309 15.64C82.0775 15.1467 82.2009 14.6 82.2009 14C82.2009 13.3933 82.0775 12.8433 81.8309 12.35C81.5842 11.8567 81.2409 11.4667 80.8009 11.18C80.3675 10.8867 79.8575 10.74 79.2709 10.74C78.6909 10.74 78.1609 10.8867 77.6809 11.18C77.2009 11.4733 76.8209 11.8667 76.5409 12.36C76.2609 12.8533 76.1209 13.4 76.1209 14C76.1209 14.6067 76.2642 15.1567 76.5509 15.65C76.8442 16.1367 77.2275 16.5267 77.7009 16.82C78.1809 17.1067 78.7042 17.25 79.2709 17.25ZM86.4463 19V9H88.5263V10.06C88.873 9.64667 89.2997 9.32 89.8063 9.08C90.313 8.84 90.8597 8.72 91.4463 8.72C91.8197 8.72 92.1897 8.77 92.5563 8.87L91.7263 10.97C91.4663 10.87 91.2063 10.82 90.9463 10.82C90.5063 10.82 90.103 10.93 89.7363 11.15C89.3697 11.3633 89.0763 11.6533 88.8563 12.02C88.6363 12.3867 88.5263 12.7933 88.5263 13.24V19H86.4463ZM102.79 12.73V19H100.71V13.24C100.71 12.7933 100.6 12.3867 100.38 12.02C100.167 11.6533 99.8768 11.3633 99.5101 11.15C99.1501 10.93 98.7434 10.82 98.2901 10.82C97.8501 10.82 97.4468 10.93 97.0801 11.15C96.7134 11.3633 96.4201 11.6533 96.2001 12.02C95.9801 12.3867 95.8701 12.7933 95.8701 13.24V19H93.7901V9H95.8701V10.06C96.2168 9.64667 96.6434 9.32 97.1501 9.08C97.6568 8.84 98.2034 8.72 98.7901 8.72C99.5301 8.72 100.203 8.9 100.81 9.26C101.417 9.62 101.897 10.1033 102.25 10.71C102.61 11.3167 102.79 11.99 102.79 12.73ZM107.358 19L103.778 5H105.918L108.538 15.27L111.148 5H113.038L115.658 15.27L118.278 5H120.418L116.858 19H114.468L112.098 9.73L109.728 19H107.358ZM128.64 9H130.72V19H128.63L128.55 17.55C128.257 18.0633 127.86 18.4767 127.36 18.79C126.86 19.1033 126.27 19.26 125.59 19.26C124.857 19.26 124.167 19.1233 123.52 18.85C122.874 18.57 122.304 18.1833 121.81 17.69C121.324 17.1967 120.944 16.63 120.67 15.99C120.397 15.3433 120.26 14.65 120.26 13.91C120.26 13.1967 120.394 12.5267 120.66 11.9C120.927 11.2667 121.297 10.7133 121.77 10.24C122.244 9.76667 122.79 9.39667 123.41 9.13C124.037 8.85667 124.707 8.72 125.42 8.72C126.147 8.72 126.787 8.88667 127.34 9.22C127.9 9.54667 128.364 9.96667 128.73 10.48L128.64 9ZM125.54 17.25C126.127 17.25 126.64 17.1067 127.08 16.82C127.52 16.5267 127.86 16.1333 128.1 15.64C128.347 15.1467 128.47 14.6 128.47 14C128.47 13.3933 128.347 12.8433 128.1 12.35C127.854 11.8567 127.51 11.4667 127.07 11.18C126.637 10.8867 126.127 10.74 125.54 10.74C124.96 10.74 124.43 10.8867 123.95 11.18C123.47 11.4733 123.09 11.8667 122.81 12.36C122.53 12.8533 122.39 13.4 122.39 14C122.39 14.6067 122.534 15.1567 122.82 15.65C123.114 16.1367 123.497 16.5267 123.97 16.82C124.45 17.1067 124.974 17.25 125.54 17.25ZM138.065 19H135.395L131.745 8.98H133.965L136.725 16.6L139.495 8.98H141.705L138.065 19ZM147.253 19.26C146.333 19.26 145.493 19.0233 144.733 18.55C143.979 18.0767 143.376 17.4433 142.923 16.65C142.476 15.85 142.253 14.9667 142.253 14C142.253 13.2667 142.383 12.5833 142.643 11.95C142.903 11.31 143.259 10.75 143.713 10.27C144.173 9.78333 144.706 9.40333 145.313 9.13C145.919 8.85667 146.566 8.72 147.253 8.72C148.019 8.72 148.723 8.88 149.363 9.2C150.003 9.51333 150.549 9.95 151.003 10.51C151.456 11.0633 151.789 11.7033 152.003 12.43C152.216 13.15 152.279 13.9167 152.193 14.73H144.483C144.569 15.19 144.736 15.6067 144.983 15.98C145.236 16.3467 145.556 16.6367 145.943 16.85C146.336 17.0633 146.773 17.1733 147.253 17.18C147.759 17.18 148.219 17.0533 148.633 16.8C149.053 16.5467 149.396 16.1967 149.663 15.75L151.773 16.24C151.373 17.1267 150.769 17.8533 149.963 18.42C149.156 18.98 148.253 19.26 147.253 19.26ZM144.413 13.14H150.093C150.026 12.66 149.856 12.2267 149.583 11.84C149.316 11.4467 148.979 11.1367 148.573 10.91C148.173 10.6767 147.733 10.56 147.253 10.56C146.779 10.56 146.339 10.6733 145.933 10.9C145.533 11.1267 145.199 11.4367 144.933 11.83C144.673 12.2167 144.499 12.6533 144.413 13.14Z" fill="white"/>
<path d="M53.8402 37V27.2H59.8042V28.18H54.8202V31.26H58.9432V32.24H54.8202V36.02H59.8042V37H53.8402ZM66.7516 26.5H67.7316V37H66.7516V35.691C66.509 36.139 66.1753 36.5007 65.7506 36.776C65.3306 37.0467 64.8313 37.182 64.2526 37.182C63.744 37.182 63.268 37.0863 62.8246 36.895C62.3813 36.7037 61.9893 36.44 61.6486 36.104C61.3126 35.7633 61.049 35.3713 60.8576 34.928C60.6663 34.4847 60.5706 34.0087 60.5706 33.5C60.5706 32.9913 60.6663 32.5153 60.8576 32.072C61.049 31.624 61.3126 31.232 61.6486 30.896C61.9893 30.5553 62.3813 30.2893 62.8246 30.098C63.268 29.9067 63.744 29.811 64.2526 29.811C64.8313 29.811 65.3306 29.9487 65.7506 30.224C66.1753 30.4947 66.509 30.8517 66.7516 31.295V26.5ZM64.2596 36.23C64.759 36.23 65.1883 36.1087 65.5476 35.866C65.907 35.6187 66.1823 35.2873 66.3736 34.872C66.5696 34.4567 66.6676 33.9993 66.6676 33.5C66.6676 32.9867 66.5696 32.5247 66.3736 32.114C66.1776 31.6987 65.9 31.3697 65.5406 31.127C65.1813 30.8843 64.7543 30.763 64.2596 30.763C63.765 30.763 63.3146 30.8867 62.9086 31.134C62.5026 31.3767 62.1783 31.7057 61.9356 32.121C61.693 32.5363 61.5716 32.996 61.5716 33.5C61.5716 34.0087 61.6953 34.4707 61.9426 34.886C62.19 35.2967 62.5166 35.6233 62.9226 35.866C63.3333 36.1087 63.779 36.23 64.2596 36.23ZM69.1325 34.319V30H70.1125V34.123C70.1125 34.5057 70.2058 34.8533 70.3925 35.166C70.5792 35.4787 70.8288 35.7283 71.1415 35.915C71.4588 36.1017 71.8065 36.195 72.1845 36.195C72.5672 36.195 72.9125 36.1017 73.2205 35.915C73.5332 35.7283 73.7828 35.4787 73.9695 35.166C74.1562 34.8533 74.2495 34.5057 74.2495 34.123V30H75.2295L75.2365 37H74.2565L74.2495 36.02C74.0022 36.3747 73.6802 36.657 73.2835 36.867C72.8915 37.077 72.4622 37.182 71.9955 37.182C71.4682 37.182 70.9875 37.0537 70.5535 36.797C70.1195 36.5403 69.7742 36.195 69.5175 35.761C69.2608 35.327 69.1325 34.8463 69.1325 34.319ZM81.5746 35.243L82.4496 35.719C82.1322 36.1623 81.7286 36.517 81.2386 36.783C80.7532 37.049 80.2259 37.182 79.6566 37.182C79.0126 37.182 78.4246 37.0163 77.8926 36.685C77.3652 36.3537 76.9429 35.9103 76.6256 35.355C76.3129 34.795 76.1566 34.1767 76.1566 33.5C76.1566 32.9867 76.2476 32.5083 76.4296 32.065C76.6116 31.617 76.8612 31.225 77.1786 30.889C77.5006 30.5483 77.8739 30.2823 78.2986 30.091C78.7232 29.8997 79.1759 29.804 79.6566 29.804C80.2259 29.804 80.7532 29.937 81.2386 30.203C81.7286 30.469 82.1322 30.826 82.4496 31.274L81.5746 31.743C81.3319 31.435 81.0402 31.1993 80.6996 31.036C80.3589 30.868 80.0112 30.784 79.6566 30.784C79.1852 30.784 78.7582 30.91 78.3756 31.162C77.9929 31.4093 77.6896 31.7383 77.4656 32.149C77.2462 32.5597 77.1366 33.01 77.1366 33.5C77.1366 33.99 77.2486 34.4403 77.4726 34.851C77.7012 35.2617 78.0069 35.5907 78.3896 35.838C78.7722 36.0807 79.1946 36.202 79.6566 36.202C80.0392 36.202 80.3986 36.1133 80.7346 35.936C81.0706 35.7587 81.3506 35.5277 81.5746 35.243ZM89.3716 30H90.3516V37H89.3716L89.3366 35.698C89.1079 36.1413 88.7883 36.5007 88.3776 36.776C87.9669 37.0467 87.4769 37.182 86.9076 37.182C86.3943 37.182 85.9136 37.0863 85.4656 36.895C85.0176 36.699 84.6233 36.4307 84.2826 36.09C83.9419 35.7493 83.6759 35.355 83.4846 34.907C83.2933 34.459 83.1976 33.9783 83.1976 33.465C83.1976 32.961 83.2909 32.4873 83.4776 32.044C83.6689 31.6007 83.9303 31.211 84.2616 30.875C84.5976 30.539 84.9849 30.2777 85.4236 30.091C85.8669 29.8997 86.3406 29.804 86.8446 29.804C87.4279 29.804 87.9366 29.944 88.3706 30.224C88.8046 30.4993 89.1499 30.861 89.4066 31.309L89.3716 30ZM86.8866 36.23C87.3859 36.23 87.8153 36.1087 88.1746 35.866C88.5339 35.6187 88.8093 35.2873 89.0006 34.872C89.1966 34.4567 89.2946 33.9993 89.2946 33.5C89.2946 32.9867 89.1966 32.5247 89.0006 32.114C88.8046 31.6987 88.5269 31.3697 88.1676 31.127C87.8083 30.8843 87.3813 30.763 86.8866 30.763C86.3919 30.763 85.9393 30.8867 85.5286 31.134C85.1226 31.3767 84.7983 31.7057 84.5556 32.121C84.3176 32.5363 84.1986 32.996 84.1986 33.5C84.1986 34.0087 84.3223 34.4707 84.5696 34.886C84.8169 35.2967 85.1436 35.6233 85.5496 35.866C85.9603 36.1087 86.4059 36.23 86.8866 36.23ZM95.3294 30.98H93.6564L93.6494 37H92.6694L92.6764 30.98H91.4094V30H92.6764L92.6694 27.802H93.6494L93.6564 30H95.3294V30.98ZM96.5238 30H97.5038V37H96.5238V30ZM97.0208 28.775C96.8622 28.775 96.7268 28.7237 96.6148 28.621C96.5075 28.5137 96.4538 28.3807 96.4538 28.222C96.4538 28.0633 96.5075 27.9327 96.6148 27.83C96.7268 27.7227 96.8622 27.669 97.0208 27.669C97.1748 27.669 97.3055 27.7227 97.4128 27.83C97.5248 27.9327 97.5808 28.0633 97.5808 28.222C97.5808 28.3807 97.5272 28.5137 97.4198 28.621C97.3125 28.7237 97.1795 28.775 97.0208 28.775ZM102.201 37.182C101.557 37.182 100.969 37.0163 100.437 36.685C99.9102 36.3537 99.4878 35.9103 99.1705 35.355C98.8578 34.795 98.7015 34.1767 98.7015 33.5C98.7015 32.9867 98.7925 32.5083 98.9745 32.065C99.1565 31.617 99.4062 31.225 99.7235 30.889C100.045 30.5483 100.419 30.2823 100.843 30.091C101.268 29.8997 101.721 29.804 102.201 29.804C102.845 29.804 103.431 29.9697 103.958 30.301C104.49 30.6323 104.913 31.078 105.225 31.638C105.543 32.198 105.701 32.8187 105.701 33.5C105.701 34.0087 105.61 34.4847 105.428 34.928C105.246 35.3713 104.994 35.7633 104.672 36.104C104.355 36.44 103.984 36.7037 103.559 36.895C103.139 37.0863 102.687 37.182 102.201 37.182ZM102.201 36.202C102.677 36.202 103.104 36.0783 103.482 35.831C103.865 35.579 104.166 35.2477 104.385 34.837C104.609 34.4263 104.721 33.9807 104.721 33.5C104.721 33.01 104.609 32.5597 104.385 32.149C104.161 31.7337 103.858 31.4023 103.475 31.155C103.097 30.9077 102.673 30.784 102.201 30.784C101.725 30.784 101.296 30.91 100.913 31.162C100.535 31.4093 100.234 31.7383 100.01 32.149C99.7912 32.5597 99.6815 33.01 99.6815 33.5C99.6815 34.004 99.7958 34.4613 100.024 34.872C100.253 35.278 100.559 35.6023 100.941 35.845C101.324 36.083 101.744 36.202 102.201 36.202ZM112.991 32.667V37H112.011V32.863C112.011 32.4803 111.918 32.1327 111.731 31.82C111.544 31.5073 111.295 31.2577 110.982 31.071C110.669 30.8843 110.322 30.791 109.939 30.791C109.561 30.791 109.213 30.8843 108.896 31.071C108.583 31.2577 108.334 31.5073 108.147 31.82C107.96 32.1327 107.867 32.4803 107.867 32.863V37H106.887V30H107.867V30.966C108.114 30.6113 108.436 30.329 108.833 30.119C109.23 29.909 109.661 29.804 110.128 29.804C110.655 29.804 111.136 29.9323 111.57 30.189C112.004 30.4457 112.349 30.791 112.606 31.225C112.863 31.659 112.991 32.1397 112.991 32.667ZM117.756 37V27.2H120.892C121.415 27.2 121.886 27.3283 122.306 27.585C122.726 27.837 123.06 28.18 123.307 28.614C123.559 29.0433 123.685 29.5263 123.685 30.063C123.685 30.6043 123.557 31.092 123.3 31.526C123.048 31.96 122.71 32.303 122.285 32.555C121.865 32.807 121.401 32.933 120.892 32.933H118.736V37H117.756ZM118.736 31.953H120.815C121.161 31.953 121.476 31.869 121.76 31.701C122.05 31.5283 122.278 31.2973 122.446 31.008C122.619 30.714 122.705 30.3827 122.705 30.014C122.705 29.6453 122.619 29.3163 122.446 29.027C122.278 28.733 122.05 28.502 121.76 28.334C121.476 28.1613 121.161 28.075 120.815 28.075H118.736V31.953ZM125.112 37V26.5H126.092V37H125.112ZM133.477 30H134.457V37H133.477L133.442 35.698C133.213 36.1413 132.894 36.5007 132.483 36.776C132.072 37.0467 131.582 37.182 131.013 37.182C130.5 37.182 130.019 37.0863 129.571 36.895C129.123 36.699 128.729 36.4307 128.388 36.09C128.047 35.7493 127.781 35.355 127.59 34.907C127.399 34.459 127.303 33.9783 127.303 33.465C127.303 32.961 127.396 32.4873 127.583 32.044C127.774 31.6007 128.036 31.211 128.367 30.875C128.703 30.539 129.09 30.2777 129.529 30.091C129.972 29.8997 130.446 29.804 130.95 29.804C131.533 29.804 132.042 29.944 132.476 30.224C132.91 30.4993 133.255 30.861 133.512 31.309L133.477 30ZM130.992 36.23C131.491 36.23 131.921 36.1087 132.28 35.866C132.639 35.6187 132.915 35.2873 133.106 34.872C133.302 34.4567 133.4 33.9993 133.4 33.5C133.4 32.9867 133.302 32.5247 133.106 32.114C132.91 31.6987 132.632 31.3697 132.273 31.127C131.914 30.8843 131.487 30.763 130.992 30.763C130.497 30.763 130.045 30.8867 129.634 31.134C129.228 31.3767 128.904 31.7057 128.661 32.121C128.423 32.5363 128.304 32.996 128.304 33.5C128.304 34.0087 128.428 34.4707 128.675 34.886C128.922 35.2967 129.249 35.6233 129.655 35.866C130.066 36.1087 130.511 36.23 130.992 36.23ZM139.435 30.98H137.762L137.755 37H136.775L136.782 30.98H135.515V30H136.782L136.775 27.802H137.755L137.762 30H139.435V30.98ZM142.133 28.173V30H144.233V30.98H142.133V37H141.153V30.98H140.194V30H141.153V28.173C141.153 27.8323 141.235 27.5243 141.398 27.249C141.566 26.969 141.79 26.7473 142.07 26.584C142.35 26.416 142.66 26.332 143.001 26.332C143.248 26.332 143.486 26.381 143.715 26.479C143.948 26.577 144.156 26.7217 144.338 26.913L143.638 27.606C143.563 27.5127 143.468 27.4403 143.351 27.389C143.239 27.3377 143.122 27.312 143.001 27.312C142.763 27.312 142.558 27.396 142.385 27.564C142.217 27.732 142.133 27.935 142.133 28.173ZM148.276 37.182C147.632 37.182 147.044 37.0163 146.512 36.685C145.984 36.3537 145.562 35.9103 145.245 35.355C144.932 34.795 144.776 34.1767 144.776 33.5C144.776 32.9867 144.867 32.5083 145.049 32.065C145.231 31.617 145.48 31.225 145.798 30.889C146.12 30.5483 146.493 30.2823 146.918 30.091C147.342 29.8997 147.795 29.804 148.276 29.804C148.92 29.804 149.505 29.9697 150.033 30.301C150.565 30.6323 150.987 31.078 151.3 31.638C151.617 32.198 151.776 32.8187 151.776 33.5C151.776 34.0087 151.685 34.4847 151.503 34.928C151.321 35.3713 151.069 35.7633 150.747 36.104C150.429 36.44 150.058 36.7037 149.634 36.895C149.214 37.0863 148.761 37.182 148.276 37.182ZM148.276 36.202C148.752 36.202 149.179 36.0783 149.557 35.831C149.939 35.579 150.24 35.2477 150.46 34.837C150.684 34.4263 150.796 33.9807 150.796 33.5C150.796 33.01 150.684 32.5597 150.46 32.149C150.236 31.7337 149.932 31.4023 149.55 31.155C149.172 30.9077 148.747 30.784 148.276 30.784C147.8 30.784 147.37 30.91 146.988 31.162C146.61 31.4093 146.309 31.7383 146.085 32.149C145.865 32.5597 145.756 33.01 145.756 33.5C145.756 34.004 145.87 34.4613 146.099 34.872C146.327 35.278 146.633 35.6023 147.016 35.845C147.398 36.083 147.818 36.202 148.276 36.202ZM152.961 37V30H153.941V30.966C154.189 30.6113 154.511 30.329 154.907 30.119C155.304 29.909 155.736 29.804 156.202 29.804C156.473 29.804 156.734 29.839 156.986 29.909L156.587 30.882C156.391 30.8213 156.2 30.791 156.013 30.791C155.635 30.791 155.288 30.8843 154.97 31.071C154.658 31.2577 154.408 31.5073 154.221 31.82C154.035 32.1327 153.941 32.4803 153.941 32.863V37H152.961ZM157.897 37V30H158.877V30.966C159.129 30.6113 159.451 30.329 159.843 30.119C160.235 29.909 160.664 29.804 161.131 29.804C161.658 29.804 162.141 29.9347 162.58 30.196C163.019 30.4527 163.362 30.7957 163.609 31.225C163.856 30.7957 164.197 30.4527 164.631 30.196C165.065 29.9347 165.546 29.804 166.073 29.804C166.6 29.804 167.081 29.9323 167.515 30.189C167.949 30.4457 168.294 30.791 168.551 31.225C168.808 31.659 168.936 32.1397 168.936 32.667V37H167.956V32.884C167.956 32.5107 167.865 32.1653 167.683 31.848C167.501 31.5307 167.256 31.2763 166.948 31.085C166.645 30.889 166.306 30.791 165.933 30.791C165.56 30.791 165.219 30.882 164.911 31.064C164.608 31.2413 164.365 31.4887 164.183 31.806C164.001 32.1187 163.91 32.478 163.91 32.884V37H162.93V32.884C162.93 32.478 162.839 32.1187 162.657 31.806C162.475 31.4887 162.23 31.2413 161.922 31.064C161.614 30.882 161.273 30.791 160.9 30.791C160.531 30.791 160.193 30.889 159.885 31.085C159.577 31.2763 159.332 31.5307 159.15 31.848C158.968 32.1653 158.877 32.5107 158.877 32.884V37H157.897Z" fill="white" fill-opacity="0.42"/>
</svg>
