<svg width="3142" height="250" viewBox="0 0 3142 250" fill="none" xmlns="http://www.w3.org/2000/svg">
<g clip-path="url(#clip0_16_1196)">
<path d="M0 125L21.8 108.3C43.6 92 87 58 131 45.8C174.5 33 218 42 262 75C305.5 108 349 167 393 187.5C436.4 208 480 192 524 166.7C567.3 142 611 108 655 91.7C698.2 75 742 75 785 91.7C829.1 108 873 142 916 141.7C960 142 1004 108 1047 87.5C1090.9 67 1135 58 1178 66.7C1221.8 75 1265 100 1309 125C1352.7 150 1396 175 1440 183.3C1483.6 192 1527 183 1571 158.3C1614.5 133 1658 92 1702 83.3C1745.5 75 1789 100 1833 104.2C1876.4 108 1920 92 1964 100C2007.3 108 2051 142 2095 158.3C2138.2 175 2182 175 2225 145.8C2269.1 117 2313 58 2356 41.7C2400 25 2444 50 2487 87.5C2530.9 125 2575 175 2618 195.8C2661.8 217 2705 208 2749 204.2C2792.7 200 2836 200 2880 200C2923.6 200 2967 200 3011 179.2C3054.5 158 3098 117 3120 95.8L3141.8 75V250H3120C3098.2 250 3055 250 3011 250C2967.3 250 2924 250 2880 250C2836.4 250 2793 250 2749 250C2705.5 250 2662 250 2618 250C2574.5 250 2531 250 2487 250C2443.6 250 2400 250 2356 250C2312.7 250 2269 250 2225 250C2181.8 250 2138 250 2095 250C2050.9 250 2007 250 1964 250C1920 250 1876 250 1833 250C1789.1 250 1745 250 1702 250C1658.2 250 1615 250 1571 250C1527.3 250 1484 250 1440 250C1396.4 250 1353 250 1309 250C1265.5 250 1222 250 1178 250C1134.5 250 1091 250 1047 250C1003.6 250 960 250 916 250C872.7 250 829 250 785 250C741.8 250 698 250 655 250C610.9 250 567 250 524 250C480 250 436 250 393 250C349.1 250 305 250 262 250C218.2 250 175 250 131 250C87.3 250 44 250 22 250H0V125Z" fill="#36394A"/>
</g>
<defs>
<clipPath id="clip0_16_1196">
<rect width="3142" height="250" fill="white"/>
</clipPath>
</defs>
</svg>
